<?xml version="1.0" encoding="utf-8"?>
<!-- Generator: Adobe Illustrator 19.0.1, SVG Export Plug-In . SVG Version: 6.00 Build 0)  -->
<svg version="1.1" id="Слой_1" xmlns="http://www.w3.org/2000/svg" xmlns:xlink="http://www.w3.org/1999/xlink" x="0px" y="0px"
	 viewBox="0 0 20 16" style="enable-background:new 0 0 20 16;" xml:space="preserve">
<style type="text/css">
	.st0{fill:#BFBFBF;}
</style>
<g>
	<g>
		<path class="st0" d="M3.2,8l6-6c0.2-0.2,0.3-0.4,0.3-0.6c0-0.2-0.1-0.5-0.3-0.6L8.6,0.3C8.5,0.1,8.2,0,8,0C7.8,0,7.5,0.1,7.4,0.3
			L0.3,7.4C0.1,7.5,0,7.8,0,8c0,0.2,0.1,0.5,0.3,0.6l7.1,7.1C7.5,15.9,7.8,16,8,16c0.2,0,0.5-0.1,0.6-0.3l0.5-0.5
			c0.3-0.3,0.3-0.9,0-1.2L3.2,8z"/>
	</g>
</g>
<g>
	<g>
		<path class="st0" d="M10.9,14c-0.3,0.3-0.3,0.9,0,1.2l0.5,0.5c0.2,0.2,0.4,0.3,0.6,0.3c0.2,0,0.5-0.1,0.6-0.3l7.1-7.1
			C19.9,8.5,20,8.2,20,8c0-0.2-0.1-0.5-0.3-0.6l-7.1-7.1C12.5,0.1,12.2,0,12,0c-0.2,0-0.5,0.1-0.6,0.3l-0.5,0.5
			c-0.2,0.2-0.3,0.4-0.3,0.6c0,0.2,0.1,0.5,0.3,0.6l6,6L10.9,14z"/>
	</g>
</g>
</svg>
