<?xml version="1.0" encoding="utf-8"?>
<!-- Generator: Adobe Illustrator 19.0.1, SVG Export Plug-In . SVG Version: 6.00 Build 0)  -->
<svg version="1.1" id="Слой_1" xmlns="http://www.w3.org/2000/svg" xmlns:xlink="http://www.w3.org/1999/xlink" x="0px" y="0px"
	 viewBox="22 -8 64 64" style="enable-background:new 22 -8 64 64;" xml:space="preserve">
<style type="text/css">
	.st0{fill:#BFBFBF;}
	.st1{fill:#FF4D4D;}
	.st2{fill:#30C63E;}
</style>
<path class="st0" d="M35,46L35,46c-1.1,0-2-0.9-2-2v-8c0-1.1,0.9-2,2-2h0c1.1,0,2,0.9,2,2v8C37,45.1,36.1,46,35,46z"/>
<path class="st0" d="M41,46L41,46c-1.1,0-2-0.9-2-2v-8c0-1.1,0.9-2,2-2h0c1.1,0,2,0.9,2,2v8C43,45.1,42.1,46,41,46z"/>
<path class="st1" d="M67,46L67,46c-1.1,0-2-0.9-2-2v-8c0-1.1,0.9-2,2-2l0,0c1.1,0,2,0.9,2,2v8C69,45.1,68.1,46,67,46z"/>
<path class="st1" d="M73,46L73,46c-1.1,0-2-0.9-2-2v-8c0-1.1,0.9-2,2-2l0,0c1.1,0,2,0.9,2,2v8C75,45.1,74.1,46,73,46z"/>
<path class="st0" d="M34-0.3l11.3,6.5c1.3,0.8,1.3,2.7,0,3.5L34,16.3c-1.3,0.8-3-0.2-3-1.7V1.5C31-0.1,32.7-1,34-0.3z"/>
<path class="st2" d="M66-0.3l11.3,6.5c1.3,0.8,1.3,2.7,0,3.5L66,16.3c-1.3,0.8-3-0.2-3-1.7V1.5C63-0.1,64.7-1,66-0.3z"/>
</svg>
