<?xml version="1.0" encoding="utf-8"?>
<!-- Generator: Adobe Illustrator 19.0.1, SVG Export Plug-In . SVG Version: 6.00 Build 0)  -->
<svg version="1.1" id="Capa_1" xmlns="http://www.w3.org/2000/svg" xmlns:xlink="http://www.w3.org/1999/xlink" x="0px" y="0px"
	 viewBox="245 -247 16 16" style="enable-background:new 245 -247 16 16;" xml:space="preserve">
<style type="text/css">
	.st0{fill:#808080;}
</style>
<g>
	<g id="shopping-cart">
		<path class="st0" d="M249.8-234.2c-0.9,0-1.6,0.7-1.6,1.6c0,0.9,0.7,1.6,1.6,1.6c0.9,0,1.6-0.7,1.6-1.6
			C251.4-233.5,250.7-234.2,249.8-234.2z M245-247v1.6h1.6l2.9,6.1l-1.1,1.9c-0.1,0.2-0.2,0.6-0.2,0.8c0,0.9,0.7,1.6,1.6,1.6h9.6
			v-1.6h-9.3c-0.1,0-0.2-0.1-0.2-0.2v-0.1l0.7-1.4h5.9c0.6,0,1.1-0.3,1.4-0.8l2.9-5.2c0.2-0.2,0.2-0.2,0.2-0.4
			c0-0.5-0.3-0.8-0.8-0.8h-11.8l-0.7-1.6H245z M257.8-234.2c-0.9,0-1.6,0.7-1.6,1.6c0,0.9,0.7,1.6,1.6,1.6c0.9,0,1.6-0.7,1.6-1.6
			C259.4-233.5,258.7-234.2,257.8-234.2z"/>
	</g>
</g>
</svg>
