<?xml version="1.0" encoding="utf-8"?>
<!-- Generator: Adobe Illustrator 19.0.1, SVG Export Plug-In . SVG Version: 6.00 Build 0)  -->
<svg version="1.1" id="Слой_1" xmlns="http://www.w3.org/2000/svg" xmlns:xlink="http://www.w3.org/1999/xlink" x="0px" y="0px"
	 viewBox="3 -5 64 32" style="enable-background:new 3 -5 64 32;" xml:space="preserve">
<style type="text/css">
	.st0{fill:#BFBFBF;}
	.st1{fill:#009BDC;}
</style>
<g>
	<path class="st0" d="M23.5,22.6c-0.6,0-1.3-0.2-1.8-0.7L20.9,21c-0.7-0.7-1.5-1-2.5-1h-7.9C8,20,6,18,6,15.5v-10C6,3,8,1,10.5,1h16
		C29,1,31,3,31,5.5v10c0,2-1.3,3.8-3.3,4.3c-0.4,0.1-0.8,0.4-1.2,0.8l-1.2,1.2C24.8,22.3,24.1,22.6,23.5,22.6z M10.5,4
		C9.7,4,9,4.7,9,5.5v10c0,0.8,0.7,1.5,1.5,1.5h7.9c1.7,0,3.4,0.7,4.6,1.9l0.5,0.5l0.9-0.9c0.8-0.8,1.6-1.3,2.5-1.6
		c0.6-0.2,1.1-0.8,1.1-1.4v-10C28,4.7,27.3,4,26.5,4H10.5z"/>
	<g>
		<g>
			<path class="st0" d="M13.5,12L13.5,12c-0.8,0-1.5-0.7-1.5-1.5v0C12,9.7,12.7,9,13.5,9h0c0.8,0,1.5,0.7,1.5,1.5v0
				C15,11.3,14.3,12,13.5,12z"/>
		</g>
		<g>
			<path class="st0" d="M18.5,12L18.5,12c-0.8,0-1.5-0.7-1.5-1.5v0C17,9.7,17.7,9,18.5,9h0c0.8,0,1.5,0.7,1.5,1.5v0
				C20,11.3,19.3,12,18.5,12z"/>
		</g>
		<g>
			<path class="st0" d="M23.5,12L23.5,12c-0.8,0-1.5-0.7-1.5-1.5v0C22,9.7,22.7,9,23.5,9h0c0.8,0,1.5,0.7,1.5,1.5v0
				C25,11.3,24.3,12,23.5,12z"/>
		</g>
	</g>
</g>
<g>
	<path class="st1" d="M55.5,22.6c-0.6,0-1.3-0.2-1.8-0.7L52.9,21c-0.7-0.7-1.5-1-2.5-1h-7.9C40,20,38,18,38,15.5v-10
		C38,3,40,1,42.5,1h16C61,1,63,3,63,5.5v10c0,2-1.3,3.8-3.3,4.3c-0.4,0.1-0.8,0.4-1.2,0.8l-1.2,1.2C56.8,22.3,56.1,22.6,55.5,22.6z
		 M42.5,4C41.7,4,41,4.7,41,5.5v10c0,0.8,0.7,1.5,1.5,1.5h7.9c1.7,0,3.4,0.7,4.6,1.9l0.5,0.5l0.9-0.9c0.8-0.8,1.6-1.3,2.5-1.6
		c0.6-0.2,1.1-0.8,1.1-1.4v-10C60,4.7,59.3,4,58.5,4H42.5z"/>
	<g>
		<g>
			<path class="st1" d="M45.5,12L45.5,12c-0.8,0-1.5-0.7-1.5-1.5v0C44,9.7,44.7,9,45.5,9l0,0c0.8,0,1.5,0.7,1.5,1.5v0
				C47,11.3,46.3,12,45.5,12z"/>
		</g>
		<g>
			<path class="st1" d="M50.5,12L50.5,12c-0.8,0-1.5-0.7-1.5-1.5v0C49,9.7,49.7,9,50.5,9l0,0c0.8,0,1.5,0.7,1.5,1.5v0
				C52,11.3,51.3,12,50.5,12z"/>
		</g>
		<g>
			<path class="st1" d="M55.5,12L55.5,12c-0.8,0-1.5-0.7-1.5-1.5v0C54,9.7,54.7,9,55.5,9l0,0c0.8,0,1.5,0.7,1.5,1.5v0
				C57,11.3,56.3,12,55.5,12z"/>
		</g>
	</g>
</g>
</svg>
