<?xml version="1.0" encoding="utf-8"?>
<!-- Generator: Adobe Illustrator 19.0.1, SVG Export Plug-In . SVG Version: 6.00 Build 0)  -->
<svg version="1.1" id="Слой_1" xmlns="http://www.w3.org/2000/svg" xmlns:xlink="http://www.w3.org/1999/xlink" x="0px" y="0px"
	 viewBox="22 -8 64 32" style="enable-background:new 22 -8 64 32;" xml:space="preserve">
<style type="text/css">
	.st0{fill:#BFBFBF;}
	.st1{fill:#FF9600;}
</style>
<g>
	<path class="st0" d="M43.7,4L43.7,4c-0.8-0.8-2-0.8-2.8,0L40,4.9V3.7V-1c0-1.1-0.9-2-2-2h0c-1.1,0-2,0.9-2,2v4.7v1.2L35.2,4
		c-0.8-0.8-2-0.8-2.8,0l0,0c-0.8,0.8-0.8,2,0,2.8l2.8,2.8l0,0l1.4,1.4c0.8,0.8,2,0.8,2.8,0l1.4-1.4l0,0l2.8-2.8
		C44.4,6.1,44.4,4.8,43.7,4z"/>
	<path class="st0" d="M48,11L48,11c-1.1,0-2,0.9-2,2c0,1.1-0.9,2-2,2H32c-1.1,0-2-0.9-2-2c0-1.1-0.9-2-2-2h0c-1.1,0-2,0.9-2,2
		c0,3.3,2.7,6,6,6h12c3.3,0,6-2.7,6-6C50,11.9,49.1,11,48,11z"/>
</g>
<g>
	<path class="st1" d="M75.7,4L75.7,4c-0.8-0.8-2-0.8-2.8,0L72,4.9V3.7V-1c0-1.1-0.9-2-2-2l0,0c-1.1,0-2,0.9-2,2v4.7v1.2L67.2,4
		c-0.8-0.8-2-0.8-2.8,0l0,0c-0.8,0.8-0.8,2,0,2.8l2.8,2.8l0,0l1.4,1.4c0.8,0.8,2,0.8,2.8,0l1.4-1.4l0,0l2.8-2.8
		C76.4,6.1,76.4,4.8,75.7,4z"/>
	<path class="st1" d="M80,11L80,11c-1.1,0-2,0.9-2,2c0,1.1-0.9,2-2,2H64c-1.1,0-2-0.9-2-2c0-1.1-0.9-2-2-2h0c-1.1,0-2,0.9-2,2
		c0,3.3,2.7,6,6,6h12c3.3,0,6-2.7,6-6C82,11.9,81.1,11,80,11z"/>
</g>
</svg>
